<svg xmlns="http://www.w3.org/2000/svg" xmlns:xlink="http://www.w3.org/1999/xlink" viewBox="0 0 66.57 23.26"><defs><style>.a{fill:#333;}.b{fill:url(#a);}</style><linearGradient id="a" x1="659.92" y1="522.78" x2="676.6" y2="506.1" gradientUnits="userSpaceOnUse"><stop offset="0" stop-color="#30cfd0"/><stop offset="1" stop-color="#330867"/></linearGradient></defs><title>wurd</title><path class="a" d="M627.06,501.31q1.92.84,1.92,2.07a4.87,4.87,0,0,1-.48,1.64q-.48,1.13-.81,2l-3.3,8a3.1,3.1,0,0,1-1.5,1.86,2.71,2.71,0,0,1-1.14.21,2.09,2.09,0,0,1-1.33-.52,2.69,2.69,0,0,1-.85-1.06l-.24-.51q-.24-.6-1.77-4.68-.3.72-.89,2.35t-.75,2q-.16.41-.21.54a3.37,3.37,0,0,1-.25.5,3.11,3.11,0,0,1-.48.63,2.27,2.27,0,0,1-1.65.72,2.35,2.35,0,0,1-1.56-.52,2.73,2.73,0,0,1-.84-1.06l-4.53-11a5,5,0,0,1-.3-1.17q0-1.2,1.71-1.89a4.4,4.4,0,0,1,1.56-.39,1.7,1.7,0,0,1,1,.26,1.72,1.72,0,0,1,.53.51,2.79,2.79,0,0,1,.24.52q.51,1.2,2.13,5.64l1.77-4.86a2.35,2.35,0,0,1,.66-1.05,2.43,2.43,0,0,1,3.31-.39,2.88,2.88,0,0,1,.89,1l.24.51q1.5,4.2,1.77,4.8l1.83-5q.72-1.92,2.16-1.92A2.8,2.8,0,0,1,627.06,501.31Z" transform="translate(-606.09 -501.01)"/><path class="a" d="M637.65,516.94a6.38,6.38,0,0,1-5-2.29,8.23,8.23,0,0,1-2-5.6V503.8a8.61,8.61,0,0,1,0-1,2.79,2.79,0,0,1,.25-.78q.42-.81,2.34-.81,2.1,0,2.46,1.14a4.72,4.72,0,0,1,.18,1.53v5.25a2.41,2.41,0,0,0,2.6,2.61,2.63,2.63,0,0,0,1.92-.72,2.53,2.53,0,0,0,.73-1.89v-5.31a8.77,8.77,0,0,1,0-1,2.41,2.41,0,0,1,.29-.79q.39-.78,2.31-.78t2.31.81a2.8,2.8,0,0,1,.25.79,8.77,8.77,0,0,1,0,1v10.62a8.41,8.41,0,0,1,0,1,2.13,2.13,0,0,1-.29.77q-.45.78-2.31.78t-2.25-.72a2.38,2.38,0,0,1-.3-1.23,3.05,3.05,0,0,1-.54.6,7.34,7.34,0,0,1-.81.66A4,4,0,0,1,637.65,516.94Z" transform="translate(-606.09 -501.01)"/><path class="a" d="M659.55,501.37a2,2,0,0,1,.94.61,2.12,2.12,0,0,1,.38,1.4,4.74,4.74,0,0,1-.57,2.1,1.79,1.79,0,0,1-1.65,1.14,2.34,2.34,0,0,1-1-.24,3,3,0,0,0-1.3-.24,2.37,2.37,0,0,0-1.52.57,1.72,1.72,0,0,0-.71,1.38v6.3a8.75,8.75,0,0,1,0,1,2.41,2.41,0,0,1-.29.8q-.45.78-2.34.78a3.31,3.31,0,0,1-2.07-.51,1.8,1.8,0,0,1-.54-1.29V503.8a8.66,8.66,0,0,1,0-1,2.44,2.44,0,0,1,.25-.77q.42-.81,2.34-.81t2.25.69a1.73,1.73,0,0,1,.33,1,5,5,0,0,1,.44-.51,5.57,5.57,0,0,1,1.21-.81,3.51,3.51,0,0,1,1.64-.51,7.89,7.89,0,0,1,1.19.08A7.19,7.19,0,0,1,659.55,501.37Z" transform="translate(-606.09 -501.01)"/><path class="b" d="M667.73,501.9a1.27,1.27,0,0,1,.79-.61,6.46,6.46,0,0,1,3,0,1.26,1.26,0,0,1,.79.63,2.56,2.56,0,0,1,.27.79,8.64,8.64,0,0,1,0,1v17.91a8.63,8.63,0,0,1,0,1,2.13,2.13,0,0,1-.28.77q-.45.81-2.54.81t-2.33-1.47a4.42,4.42,0,0,1-3.51,1.44,6.65,6.65,0,0,1-4.92-2.35,7.9,7.9,0,0,1,0-11,6.66,6.66,0,0,1,4.91-2.37,4.21,4.21,0,0,1,3.45,1.5v-6.3a8.67,8.67,0,0,1,0-1A2.41,2.41,0,0,1,667.73,501.9Zm-4.87,16.31a2.53,2.53,0,0,0,1.89.81,2.39,2.39,0,0,0,1.85-.81,2.6,2.6,0,0,0,.73-1.79,2.77,2.77,0,0,0-.71-1.81,2.36,2.36,0,0,0-1.9-.84,2.42,2.42,0,0,0-1.92.82,2.7,2.7,0,0,0-.72,1.81A2.54,2.54,0,0,0,662.85,518.21Z" transform="translate(-606.09 -501.01)"/></svg>