<svg xmlns="http://www.w3.org/2000/svg" viewBox="0 0 24 24"><defs><style>.a{fill:#333337;}</style></defs><title>Artboard 1</title><path class="a" d="M24,14.2V9.8C21.9,9,21.3,9,21,8.3s.1-1.2,1.1-3.2L18.9,2c-2,1-2.5,1.4-3.2,1.1s-.8-.9-1.5-3H9.8C9,2.1,9,2.7,8.3,3S7.1,2.9,5.1,2L2,5.1C3,7.2,3.4,7.6,3.1,8.3S2.1,9,0,9.8v4.4c2.1.8,2.7.8,3,1.5s-.1,1.2-1.1,3.2L5.1,22c2-1,2.5-1.4,3.2-1.1s.7,1,1.5,3.1h4.4c.8-2.1.8-2.7,1.5-3s1.2.1,3.2,1.1L22,19c-1-2-1.4-2.5-1.1-3.2S21.9,15,24,14.2Zm-4.9.8a3.81,3.81,0,0,0,.5,3.6l-1.1,1.1c-1.1-.5-2.2-1.1-3.6-.5a4,4,0,0,0-2.2,2.9H11.2A4,4,0,0,0,9,19.2c-1.4-.6-2.5,0-3.6.5L4.3,18.6A3.81,3.81,0,0,0,4.8,15a4,4,0,0,0-2.9-2.2V11.3A4,4,0,0,0,4.8,9.1a3.81,3.81,0,0,0-.5-3.6L5.4,4.4c1.1.5,2.2,1.1,3.6.5A4,4,0,0,0,11.2,2h1.5a4,4,0,0,0,2.2,2.9c1.4.6,2.5,0,3.6-.5l1.1,1.1a3.81,3.81,0,0,0-.5,3.6A4,4,0,0,0,22,11.3v1.5A4,4,0,0,0,19.1,15ZM12,9a3,3,0,1,1-3,3A2.95,2.95,0,0,1,12,9Zm0-2a5,5,0,1,0,5,5A5,5,0,0,0,12,7Z"/></svg>